<svg id="arrow-link" width="24" height="24" viewBox="0 0 24 24" fill="none" xmlns="http://www.w3.org/2000/svg">
    <path fill-rule="evenodd" clip-rule="evenodd"
          d="M6 7C6 6.44772 6.44772 6 7 6H8C8.55228 6 9 5.55228 9 5C9 4.44772 8.55228 4 8 4H7C5.34315 4 4 5.34315 4 7V17C4 18.6569 5.34315 20 7 20H17C18.6569 20 20 18.6569 20 17V16C20 15.4477 19.5523 15 19 15C18.4477 15 18 15.4477 18 16V17C18 17.5523 17.5523 18 17 18H7C6.44772 18 6 17.5523 6 17V7ZM11 5C11 4.44772 11.4477 4 12 4H19C19.5523 4 20 4.44772 20 5V12C20 12.5523 19.5523 13 19 13C18.4477 13 18 12.5523 18 12V7.41421L10.7071 14.7071C10.3166 15.0976 9.68342 15.0976 9.29289 14.7071C8.90237 14.3166 8.90237 13.6834 9.29289 13.2929L16.5858 6H12C11.4477 6 11 5.55228 11 5Z"
          fill="currentColor"/>
</svg>
