<svg id="bug" width="24" height="24" viewBox="0 0 24 24" fill="none" xmlns="http://www.w3.org/2000/svg">
<path d="M19 6L17.7143 8.54545L15.4838 9.5M4 12H8M16 12H20M5 6L6.28571 8.54545L8.5 9.5M8 14.5C8 16.4583 9.59772 18 11.4914 18H12.5074C14.4011 18 16 16.4583 16 14.5M8 14.5V11C8 9.69409 9.08572 8.54545 10.3486 8.54545H13.6503C14.9131 8.54545 16 9.69409 16 11V14.5M8 14.5L6 16L5 18M16 14.5L18 16L19 18M14.2857 8.54545H9.71429V6.18182C9.71429 5.52945 10.2263 5 10.8571 5H13.1429C13.7737 5 14.2857 5.52945 14.2857 6.18182V8.54545Z" stroke="currentColor" stroke-width="2" stroke-linecap="round" stroke-linejoin="round"/>
</svg>
