<svg id="forum" width="24" height="24" viewBox="0 0 24 24" fill="none" xmlns="http://www.w3.org/2000/svg">
<path d="M9.00001 16.4993H2.8125C2.66332 16.4993 2.52024 16.44 2.41475 16.3345C2.30926 16.229 2.25 16.086 2.25 15.9368V9.74925C2.25 7.95904 2.96116 6.24216 4.22703 4.97629C5.49289 3.71042 7.20978 2.99927 8.99999 2.99927H9C10.7902 2.99927 12.5071 3.71043 13.773 4.9763C15.0388 6.24217 15.75 7.95906 15.75 9.74927V9.74928C15.75 11.5395 15.0388 13.2564 13.773 14.5222C12.5071 15.7881 10.7902 16.4993 9.00001 16.4993V16.4993Z" stroke="currentColor" stroke-width="2"/>
<path d="M8.63428 16.4997C9.10007 17.8157 9.9623 18.955 11.1023 19.7609C12.2423 20.5667 13.604 20.9994 15.0001 20.9994H21.1876C21.3368 20.9994 21.4799 20.9401 21.5853 20.8346C21.6908 20.7291 21.7501 20.5861 21.7501 20.4369V14.2494C21.7501 12.523 21.0886 10.8622 19.9017 9.60859C18.7148 8.35493 17.0927 7.60367 15.3689 7.50928" stroke="currentColor" stroke-width="2"/>
</svg>
