<svg id="help" width="24" height="24" viewBox="0 0 24 24" fill="none" xmlns="http://www.w3.org/2000/svg">
<path fill-rule="evenodd" clip-rule="evenodd" d="M12 4C7.58172 4 4 7.58172 4 12C4 16.4183 7.58172 20 12 20C16.4183 20 20 16.4183 20 12C20 7.58172 16.4183 4 12 4ZM2 12C2 6.47715 6.47715 2 12 2C17.5228 2 22 6.47715 22 12C22 17.5228 17.5228 22 12 22C6.47715 22 2 17.5228 2 12Z" fill="currentColor"/>
<path d="M11.8208 14.043C11.3803 14.043 11.0102 13.6832 11.0795 13.2482C11.1179 13.0073 11.1759 12.7973 11.2535 12.6183C11.407 12.2643 11.7093 11.8768 12.1605 11.4556C12.6163 11.03 12.9047 10.7276 13.0256 10.5484C13.2116 10.2751 13.3047 9.97939 13.3047 9.66129C13.3047 9.24014 13.1953 8.9198 12.9767 8.70027C12.7628 8.47625 12.4465 8.36425 12.0279 8.36425C11.6279 8.36425 11.3047 8.47401 11.0581 8.69355C11.0227 8.72509 10.9898 8.75832 10.9595 8.79324C10.6546 9.1449 10.3181 9.57392 9.85265 9.57392C9.38337 9.57392 8.98483 9.18077 9.12981 8.73445C9.26312 8.32405 9.49892 7.97664 9.83721 7.6922C10.3907 7.23073 11.1209 7 12.0279 7C12.9628 7 13.6907 7.22849 14.2116 7.68548C14.7372 8.14247 15 8.78091 15 9.60081C15 10.3311 14.6465 11.0502 13.9395 11.7581L13.0814 12.5712C12.9126 12.756 12.7888 12.9875 12.71 13.2658C12.5912 13.6853 12.2568 14.043 11.8208 14.043ZM10.9047 16.1331C10.9047 15.8687 10.9907 15.6559 11.1628 15.4946C11.3349 15.3289 11.5674 15.246 11.8605 15.246C12.1581 15.246 12.393 15.3311 12.5651 15.5013C12.7372 15.6671 12.8233 15.8777 12.8233 16.1331C12.8233 16.3795 12.7395 16.5856 12.5721 16.7513C12.4047 16.9171 12.1674 17 11.8605 17C11.5535 17 11.3163 16.9171 11.1488 16.7513C10.986 16.5856 10.9047 16.3795 10.9047 16.1331Z" fill="currentColor"/>
</svg>
