<svg id="text" viewBox="0 0 71 24" fill="none" xmlns="http://www.w3.org/2000/svg">
  <path
    d="M0.345825 5.18181H5.05611V23.3636H9.76639V0.636353H5.05611C2.46545 0.636353 0.345825 2.68181 0.345825 5.18181Z"
    fill="currentColor"/>
  <path d="M14.4767 23.3636H19.1869V14.2727C19.1869 11.7727 17.0673 9.72726 14.4767 9.72726V23.3636Z" fill="currentColor"/>
  <path
    d="M23.8972 9.72726V23.3636H28.6075V14.2727H33.3178V18.8182C33.3178 21.3182 35.4374 23.3636 38.0281 23.3636V14.2727C38.0281 11.7727 35.9084 9.72726 33.3178 9.72726H23.8972Z"
    fill="currentColor"/>
  <path
    d="M66.2897 9.72726H61.5795V5.18181C61.5795 2.68181 59.4598 0.636353 56.8692 0.636353V18.8182H47.4486V14.2727H52.1589V9.72726H47.4486C44.858 9.72726 42.7383 11.7727 42.7383 14.2727V18.8182C42.7383 21.3182 44.858 23.3636 47.4486 23.3636H61.5795V14.2727H66.2897V18.8182C66.2897 21.3182 68.4094 23.3636 71 23.3636V14.2727C71 11.7727 68.8804 9.72726 66.2897 9.72726Z"
    fill="currentColor"/>
  <path d="M14.4767 5.18181H19.1869C19.1869 2.68181 17.0673 0.636353 14.4767 0.636353V5.18181Z" fill="currentColor"/>
</svg>
