<svg id="question" viewBox="0 0 16 16" fill="none" xmlns="http://www.w3.org/2000/svg">
    <path d="M7.51308 8.64478C7.47267 8.89853 7.68858 9.10842 7.94553 9.10842C8.19986 9.10842 8.39492 8.89976 8.46421 8.65504C8.51018 8.49273 8.58239 8.35768 8.68086 8.24989L9.18144 7.77554C9.59385 7.3626 9.80005 6.94314 9.80005 6.51714C9.80005 6.03887 9.64675 5.66644 9.34017 5.39987C9.03629 5.13329 8.61168 5 8.06633 5C7.53726 5 7.11129 5.1346 6.78842 5.40379C6.59109 5.56971 6.45354 5.77237 6.37577 6.01176C6.2912 6.27211 6.52368 6.50146 6.79743 6.50146C7.05115 6.50146 7.23925 6.28287 7.40794 6.08682C7.41975 6.07309 7.43147 6.05948 7.4431 6.04606C7.46076 6.02569 7.47994 6.0063 7.50063 5.9879C7.64443 5.85984 7.83299 5.79581 8.06633 5.79581C8.31051 5.79581 8.49501 5.86115 8.61982 5.99182C8.74734 6.11988 8.8111 6.30675 8.8111 6.55242C8.8111 6.73798 8.75683 6.91047 8.6483 7.06989C8.57776 7.17443 8.40954 7.35084 8.14365 7.59913C7.88048 7.8448 7.70412 8.07086 7.61458 8.27733C7.5693 8.38176 7.53546 8.50424 7.51308 8.64478Z"
          fill="currentColor"/>
    <path d="M7.56168 9.9552C7.46129 10.0493 7.4111 10.1734 7.4111 10.3276C7.4111 10.4714 7.45858 10.5916 7.55354 10.6883C7.65121 10.785 7.78958 10.8333 7.96865 10.8333C8.14772 10.8333 8.2861 10.785 8.38377 10.6883C8.48144 10.5916 8.53028 10.4714 8.53028 10.3276C8.53028 10.1787 8.48009 10.0558 8.3797 9.95912C8.27931 9.8598 8.1423 9.81015 7.96865 9.81015C7.79772 9.81015 7.66206 9.8585 7.56168 9.9552Z"
          fill="currentColor"/>
    <path fill-rule="evenodd" clip-rule="evenodd"
          d="M2 8C2 4.688 4.682 2 7.994 2C11.312 2 14 4.688 14 8C14 11.312 11.312 14 7.994 14C4.682 14 2 11.312 2 8ZM3.2 8C3.2 10.652 5.348 12.8 8 12.8C10.652 12.8 12.8 10.652 12.8 8C12.8 5.348 10.652 3.2 8 3.2C5.348 3.2 3.2 5.348 3.2 8Z"
          fill="currentColor"/>
</svg>
