<svg xmlns="http://www.w3.org/2000/svg" xmlns:xlink="http://www.w3.org/1999/xlink" viewBox="0,0,256,256" width="70px" height="70px" fill-rule="nonzero"><g transform="translate(37.64706,37.64706) scale(0.70588,0.70588)"><g fill="#4b4f86" fill-rule="nonzero" stroke="none" stroke-width="1" stroke-linecap="butt" stroke-linejoin="miter" stroke-miterlimit="10" stroke-dasharray="" stroke-dashoffset="0" font-family="none" font-weight="none" font-size="none" text-anchor="none" style="mix-blend-mode: normal"><path d="M128,309.33333c-100.14763,0 -181.33333,-81.1857 -181.33333,-181.33333v0c0,-100.14763 81.1857,-181.33333 181.33333,-181.33333v0c100.14763,0 181.33333,81.1857 181.33333,181.33333v0c0,100.14763 -81.1857,181.33333 -181.33333,181.33333z" id="shape"></path></g><g fill="none" fill-rule="nonzero" stroke="none" stroke-width="1" stroke-linecap="butt" stroke-linejoin="miter" stroke-miterlimit="10" stroke-dasharray="" stroke-dashoffset="0" font-family="none" font-weight="none" font-size="none" text-anchor="none" style="mix-blend-mode: normal"><g transform="scale(3.76471,3.76471)"><g id="_x32_1"><path d="M63.1,14.2c1,4.7 -1.9,9.3 -6.6,10.4c-6.2,1.4 -11.7,-4.2 -10.4,-10.4c0.7,-3.2 3.2,-5.9 6.6,-6.6c4.7,-1.1 9.4,1.9 10.4,6.6z" fill="#ffd55f"></path><path d="M63.1,14.2c1,4.7 -1.9,9.3 -6.6,10.4c-6.2,1.4 -11.7,-4.2 -10.4,-10.4c0.2,0.5 0.3,1.1 0.5,1.6c0.3,0.7 0.6,1.3 1,1.9c1,1.3 2.6,2.3 4.2,2.1c1.6,-0.2 2.8,-1.6 3.4,-3.1c0.6,-1.5 0.6,-3.1 0.6,-4.7c0,-1.5 0.1,-3 0.1,-4.6c3.5,0.6 6.4,3.2 7.2,6.8z" fill="#ffcc21"></path><path d="M53.9,6.8c-0.8,0 -1.7,0.3 -2.4,0.7c0.3,-0.8 0.5,-1.8 0.8,-2.6c0.7,0.4 1.1,1.2 1.6,1.9z" fill="#ffd55f"></path><path d="M55.4,25.3c0.8,0 1.7,-0.2 2.5,-0.6c-0.3,0.8 -0.6,1.8 -0.9,2.6c-0.8,-0.5 -1.1,-1.2 -1.6,-2z" fill="#ffd55f"></path><path d="M57.7,7.3c-0.8,-0.3 -1.7,-0.4 -2.5,-0.4c0.6,-0.6 1.2,-1.4 1.8,-2.1c0.4,0.8 0.5,1.6 0.7,2.5z" fill="#ffd55f"></path><path d="M51.7,24.9c0.8,0.3 1.6,0.5 2.5,0.5c-0.6,0.6 -1.3,1.4 -1.9,2c-0.5,-0.8 -0.5,-1.7 -0.6,-2.5z" fill="#ffd55f"></path><path d="M60.9,9.2c-0.6,-0.6 -1.3,-1.1 -2.1,-1.3c0.8,-0.4 1.7,-0.8 2.5,-1.2c0.1,0.8 -0.2,1.6 -0.4,2.5z" fill="#ffd55f"></path><path d="M48.4,23c0.6,0.6 1.3,1.1 2.1,1.4c-0.8,0.3 -1.7,0.8 -2.5,1.1c-0.1,-0.9 0.2,-1.7 0.4,-2.5z" fill="#ffd55f"></path><path d="M63.1,12.2c-0.3,-0.8 -0.8,-1.5 -1.5,-2.1c0.9,0 1.9,-0.1 2.8,-0.1c-0.2,0.8 -0.8,1.5 -1.3,2.2z" fill="#ffd55f"></path><path d="M46.2,20c0.3,0.8 0.8,1.5 1.4,2.1c-0.9,0 -1.9,0 -2.8,0c0.3,-0.8 0.9,-1.5 1.4,-2.1z" fill="#ffd55f"></path><path d="M64,15.7c0,-0.8 -0.2,-1.7 -0.6,-2.5c0.8,0.3 1.8,0.6 2.6,1c-0.5,0.7 -1.3,1.1 -2,1.5z" fill="#ffd55f"></path><path d="M45.4,16.4c0,0.8 0.1,1.7 0.5,2.5c-0.8,-0.4 -1.7,-0.7 -2.5,-1.1c0.4,-0.6 1.2,-1 2,-1.4z" fill="#ffd55f"></path><path d="M63.4,19.3c0.3,-0.8 0.5,-1.6 0.4,-2.5c0.6,0.6 1.4,1.3 2,1.9c-0.7,0.5 -1.6,0.5 -2.4,0.6z" fill="#ffd55f"></path><path d="M46,12.8c-0.4,0.8 -0.5,1.6 -0.5,2.5c-0.6,-0.6 -1.3,-1.3 -1.9,-1.9c0.7,-0.4 1.5,-0.5 2.4,-0.6z" fill="#ffd55f"></path><path d="M61.5,22.4c0.6,-0.6 1.1,-1.3 1.3,-2.1c0.4,0.8 0.8,1.7 1.2,2.5c-0.8,0 -1.6,-0.2 -2.5,-0.4z" fill="#ffd55f"></path><path d="M47.8,9.8c-0.6,0.6 -1.1,1.3 -1.4,2.1c-0.3,-0.8 -0.8,-1.7 -1.1,-2.5c0.9,-0.1 1.7,0.2 2.5,0.4z" fill="#ffd55f"></path><path d="M58.4,24.6c0.8,-0.3 1.5,-0.8 2.1,-1.4c0,0.9 0.1,1.9 0.1,2.8c-0.9,-0.3 -1.5,-0.9 -2.2,-1.4z" fill="#ffd55f"></path><path d="M50.9,7.6c-0.8,0.3 -1.5,0.7 -2.1,1.3c0,-0.9 0,-1.9 0,-2.8c0.8,0.3 1.4,0.9 2.1,1.5z" fill="#ffd55f"></path><g fill="#f9bf1c"><path d="M62.7,15.9c-0.1,0 -0.2,-0.1 -0.2,-0.2c0,-0.8 -0.2,-1.6 -0.5,-2.3c-0.1,-0.1 0,-0.3 0.1,-0.3c0.1,-0.1 0.3,0 0.3,0.1c0.4,0.8 0.6,1.6 0.6,2.5c-0.1,0.1 -0.2,0.2 -0.3,0.2z"></path></g><g fill="#f9bf1c"><path d="M61.3,15.2c-0.1,-0.3 -0.2,-0.5 -0.3,-0.8c-0.1,-0.1 0,-0.3 0.1,-0.3c0.1,-0.1 0.3,0 0.3,0.1c0.2,0.3 0.3,0.6 0.4,0.9c0,0.1 -0.1,0.3 -0.2,0.3c-0.2,0 -0.3,-0.1 -0.3,-0.2z"></path></g><g fill="#f9bf1c"><path d="M62.7,14.9l-0.1,-0.4c0,-0.1 0,-0.3 0.2,-0.3c0.1,0 0.3,0 0.3,0.2l0.1,0.4c0,0.1 0,0.3 -0.2,0.3c-0.1,0 -0.2,-0.1 -0.3,-0.2z"></path></g><g fill="#f9bf1c"><path d="M57.9,21.5c0.2,-0.1 0.3,-0.2 0.4,-0.4c0.1,-0.1 0.2,-0.2 0.3,-0.1c0.1,0.1 0.2,0.2 0.1,0.3c-0.1,0.3 -0.4,0.5 -0.6,0.6c-0.2,0.2 -0.5,-0.3 -0.2,-0.4z"></path></g><g fill="#f9bf1c"><path d="M61.4,20c-0.1,-0.1 -0.1,-0.3 0,-0.3c0.2,-0.2 0.4,-0.4 0.4,-0.7c0.1,-0.3 0.5,-0.2 0.5,0.1c-0.1,0.4 -0.3,0.7 -0.6,1c0,0 -0.2,0 -0.3,-0.1z"></path></g><g fill="#f9bf1c"><path d="M47.4,19.4c-0.5,-0.8 -0.8,-1.6 -0.8,-2.5c0,-0.1 0.1,-0.2 0.2,-0.2c0.1,0 0.2,0.1 0.2,0.2c0,0.8 0.3,1.6 0.8,2.3c0.1,0.2 -0.2,0.4 -0.4,0.2z"></path></g><g fill="#f9bf1c"><path d="M53.7,22.5c-0.1,0 -0.2,-0.2 -0.2,-0.3c0,-0.1 0.2,-0.2 0.3,-0.2c0.3,0.1 0.5,0.1 0.8,0.1c0.1,0 0.2,0.1 0.3,0.2c0,0.1 -0.1,0.2 -0.2,0.3c-0.4,0 -0.7,0 -1,-0.1z"></path></g><g fill="#f9bf1c"><path d="M55.3,23.7v0h-0.7c-0.1,0 -0.2,-0.1 -0.2,-0.2c0,-0.1 0.1,-0.2 0.2,-0.2h0.7c0.1,0 0.2,0.1 0.2,0.2c0,0.1 -0.1,0.2 -0.2,0.2z"></path></g><g><path d="M6.4,54.7c0.1,0 0.3,0.1 0.4,0.1z" fill="#8cd3fd"></path><path d="M64.1,43.4c0.3,-1.5 -0.6,-3.4 -1,-4.8c-1.4,-4.5 -2.7,-6.7 -6.9,-10.2c-4.9,-4.2 -11.8,-4.8 -18.1,-3.6c-1.1,0.2 -2.3,0.6 -2.8,1.6c-0.7,0.3 -1.4,1.6 -1.8,2.4c-1,2 -1.4,5.5 -3,7c-0.8,0.7 -2.3,0.7 -2.7,-0.3c-0.2,-0.5 -0.1,-1 -0.2,-1.6c-0.2,-1.2 -1.3,-2.1 -2.4,-2.3c-2,-0.4 -3.8,0.6 -8.9,0.6c-1.5,0 -3.2,-0.1 -4.5,-0.9c-1.3,-0.8 -2.3,-2.5 -1.9,-4.1c0.5,-1.7 2.2,-2.5 3.9,-2.9c1.6,-0.4 3.4,-0.5 4.7,-1.7c0.4,-0.4 0.7,-1 0.4,-1.4c-0.2,-0.2 -0.4,-0.3 -0.7,-0.4c-2.4,-0.7 -5,-1.3 -6.9,-3c-0.5,-0.5 -1,-1.1 -1.1,-1.8c-0.1,-0.7 0.1,-1.5 0.7,-1.8c0.8,-0.4 1.7,0.1 3,0.4c4.2,0.8 8.7,-1.5 13.1,-1.9c1.9,-0.2 3.7,-0.1 5.6,0.1c8.8,0.7 11.2,1.8 16.6,4.7c2.6,1.4 5.3,2.9 7.5,5c4.7,4.7 7.1,10.5 7.5,16.9c0.3,2.7 0.3,2.3 -0.1,4z" fill="#8cd3fd"></path><path d="M64.3,42.1c-0.1,11.1 -6.3,15 -16.8,18.7c-1.3,0.5 -2.7,0.8 -4.1,1.1c-1.9,0.4 -1.1,0.2 -1.9,0.3c-0.6,0.1 -1.2,0.6 -1.7,0.6c-0.3,0 -0.5,-0.1 -0.8,0c-0.7,0 -1.5,0.7 -2.2,0.3c-0.6,-0.3 -0.7,-1.2 -2.2,-0.5c-0.5,0.2 -1,0.5 -1.5,0.3c-0.6,-0.2 -1,-0.8 -2.3,-0.6c-0.5,0.1 -0.9,0.3 -1.3,0.4c-0.3,0 -0.7,0 -1,-0.1c-2.2,-0.3 -2,-1.7 -2.8,-2c-0.5,-0.2 -0.8,0 -4.6,1.8c-0.9,0.4 -2.4,0.6 -2.6,-0.5c-0.1,-1 1.1,-2.4 -2.1,-1.9c-2.8,0.4 -5.4,2.4 -8.2,2.2c-0.7,0 -1.1,-0.7 -0.9,-1.4c0.2,-0.7 0.7,-1.3 1.3,-1.5c-1.2,-1.6 -3.6,0 -5.1,-0.4c-0.9,-0.2 -1.7,-1.2 -1.3,-2c0.1,-0.4 0.5,-0.6 0.8,-0.8c1,-0.7 2.1,-1.2 3.3,-1.5c-0.1,0 -0.1,0 -0.1,0c-0.6,-0.1 -1.3,0.1 -1.9,0.2c-1.6,0.2 -2.3,-0.8 -1.8,-1.8c2.8,-5.6 18.4,2.4 32.4,-3.4c5.3,-2.6 6.1,-9.3 5.1,-15c-0.2,-1.2 -0.5,-2.2 -1,-3.4l-2.2,-4c-0.1,-0.2 -0.3,-0.4 -0.4,-0.6c-0.6,-0.7 -1.2,-0.7 -1.8,0c0,-0.1 0,-0.1 0.1,-0.2c0.4,-1.4 2.5,-1.8 3.9,-2c2,-0.3 4,-0.4 6,-0.4c3.2,0 5.2,0.2 7.9,1.5c6.2,3.2 10.5,9.6 11.8,16.6z" fill="#8cd3fd"></path><path d="M64.3,42.1c-0.1,11.1 -6.3,15 -16.8,18.7c-1.3,0.5 -2.7,0.8 -4.1,1.1c-1.9,0.4 -1.1,0.2 -1.9,0.3c-0.6,0.1 -1,0.6 -1.6,0.6c1,-0.5 1.5,-1.1 2.1,-1.4c9.1,-4 16.1,-13.1 17.2,-21c0.5,-3.4 0,-7 -1.8,-9.9c-1.1,-1.8 -2.9,-3.4 -4.6,-4.8c0.7,0.4 1.4,0.8 2.1,1.2c4.9,3.5 8.3,9.2 9.4,15.2z" fill="#75cdf9"></path><path d="M36.8,27.2c-0.2,-0.3 -0.4,-0.6 -0.6,-0.8c-0.3,-0.2 -0.8,-0.1 -1.1,0c0.6,-0.6 1.5,-0.4 2.2,-0.1c0.5,0.2 1,0.6 1.4,0.9c2.7,2.4 3.5,6.1 3.6,9.6c0.1,3.4 -0.9,6.8 -2.8,9.4c-2.8,3.7 -6.7,5 -10.8,6.1c-4.7,1.3 -9.6,1.9 -14.5,1.9c-1.4,0 -2.9,-0.1 -4.3,-0.1c-1.4,0.1 -2.8,0.4 -4.2,0.6c-0.7,0.1 -1.4,0.2 -2,0.1c-0.5,-0.1 -1,-0.4 -1.3,-0.8c-0.3,-0.4 -0.1,-0.8 0.1,-1.2c1.4,-3.4 10.4,-1.7 14.1,-1.6c8.6,0.4 13.4,0.3 18.3,-1.9c2.7,-1.2 4.1,-2.6 5,-6.3c1.1,-4.1 0.7,-8.4 -0.7,-11.9z" fill="#75cdf9"></path><path d="M50.9,33.5c3,2.2 4.3,9.1 0,15c-2.5,3.5 -6.1,5.8 -9.9,7.5c-2.7,1.3 -5.8,2.3 -8.7,1.5c1.6,-1.4 3.9,-1.7 5.9,-2.5c2.3,-1 4.2,-2.8 6,-4.6c2.4,-2.4 3.5,-3.8 3.7,-7.4c0.1,-1 0,-2 -0.3,-3c-0.3,-0.9 -0.8,-1.8 -1.3,-2.7c-1.5,-3.5 1.7,-5.9 4.6,-3.8z" fill="#75cdf9"></path><path d="M64.3,39c-1.9,-5.6 -4.9,-10.9 -8.9,-15.2c-4.4,-4.9 -10.3,-8.5 -16.7,-9.8c-4,-0.8 -8.2,-0.7 -12.3,-0.3c-1.4,0.1 -7.3,0.3 -7,2.8c0.1,1.1 3.5,0.8 4.2,1.4c0.4,0.4 0.7,1 0.7,1.6c0,1.9 -2.1,2.6 -3.2,3.7c-0.8,0.9 -1.3,2.3 -0.6,3.3c0.7,0.8 1.9,0.8 2.9,0.3c0.9,-0.5 1.8,-1.2 2.8,-1.5c1,-0.3 2.3,0 2.6,1.1c0.1,0.6 0,1.2 0,1.7c0.1,0.9 0.9,1.7 1.7,1.9c0.9,0.2 1.8,-0.1 2.5,-0.7c0.2,-0.2 0.4,-0.4 0.6,-0.6c-1.1,2.3 -1.4,5.6 -3.1,7.1c-0.8,0.7 -2.3,0.7 -2.7,-0.3c-0.2,-0.5 -0.1,-1 -0.2,-1.6c-0.2,-1.2 -1.3,-2.1 -2.4,-2.3c-2,-0.4 -3.8,0.6 -8.9,0.6c-1.5,0 -3.2,-0.1 -4.5,-0.9c-1.3,-0.8 -2.3,-2.5 -1.9,-4.1c0.5,-1.7 2.2,-2.5 3.9,-2.9c1.6,-0.4 3.4,-0.5 4.7,-1.7c0.4,-0.4 0.7,-1 0.4,-1.4c-0.2,-0.2 -0.4,-0.3 -0.7,-0.4c-2.4,-0.7 -5,-1.3 -6.9,-3c-0.5,-0.5 -1,-1.1 -1.1,-1.8c-0.1,-0.7 0.1,-1.5 0.7,-1.8c0.8,-0.4 1.7,0.1 3,0.4v0c4.3,0.8 8.7,-1.5 13.1,-1.9c1.9,-0.2 3.7,-0.1 5.6,0.1c8.8,0.7 11.2,1.8 16.6,4.7c2.6,1.4 5.3,2.9 7.5,5c4.9,4.4 7.1,10 7.6,16.5z" fill="#dcf1ff" opacity="0.81"></path><path d="M53.6,23.5c-5.3,-3 -11.7,-3.9 -17.6,-2.3c-2.5,0.7 -6.4,2.8 -8.9,1.7c-3.2,-1.4 0.9,-3.5 2.2,-3.9c8,-2.8 17.6,-1.1 24.3,4.5z" fill="#dcf1ff"></path><path d="M7.1,15.7c0.2,0.3 0.3,0.7 0.4,1c0.8,2 2.7,3 4.8,3.5c0.3,0.1 0.4,0.2 0.2,0.4c-0.4,0.3 -0.9,0.3 -1.4,0.3c-1.9,-0.1 -3.8,-1.1 -5,-2.7c-0.5,-0.6 -1.1,-1.7 -0.8,-2.5c0.3,-0.9 1.4,-0.7 1.8,0z" fill="#c5eaff" opacity="0.39"></path><path d="M56.5,43.6c-0.1,-0.1 -0.2,-0.2 -0.1,-0.3c1.6,-3.3 1.5,-7.4 -0.3,-10.6c-0.1,-0.1 0,-0.3 0.1,-0.3c0.1,-0.1 0.3,0 0.3,0.1c1.9,3.4 2,7.6 0.3,11c0,0.1 -0.2,0.2 -0.3,0.1z" fill="#75cdf9"></path><path d="M56.5,39.7c-0.1,0 -0.2,-0.1 -0.2,-0.2l-0.3,-3.5c0,-0.3 0.4,-0.4 0.5,0l0.3,3.6c0,0 -0.1,0.1 -0.3,0.1c0.1,0 0.1,0 0,0z" fill="#75cdf9"></path><path d="M41,52c-0.1,-0.1 0,-0.3 0.1,-0.3c3.3,-1.7 4.8,-5.5 3.6,-9c0,-0.1 0,-0.3 0.1,-0.3c0.1,0 0.3,0 0.3,0.1c1.3,3.7 -0.3,7.8 -3.8,9.6c-0.1,0 -0.3,0 -0.3,-0.1z" fill="#75cdf9"></path><path d="M40.9,47.4c0.6,-0.6 0.9,-1.5 0.9,-2.3c0,-0.1 0.1,-0.2 0.2,-0.2c0.1,0 0.2,0.1 0.2,0.2c0,1 -0.3,2 -1,2.7c-0.2,0.1 -0.5,-0.2 -0.3,-0.4z" fill="#75cdf9"></path><path d="M11.1,57.3c-0.3,0 -0.3,-0.5 0.1,-0.5c2.1,0.3 4.2,0 6.2,-0.9c0.1,-0.1 0.3,0 0.3,0.1c0.1,0.1 0,0.3 -0.1,0.3c-2.1,1 -4.4,1.3 -6.5,1z" fill="#75cdf9"></path><path d="M14.7,58.6l2.8,-0.6c0.1,0 0.3,0.1 0.3,0.2c0,0.1 -0.1,0.3 -0.2,0.3l-2.8,0.6c-0.3,0 -0.4,-0.4 -0.1,-0.5z" fill="#75cdf9"></path><path d="M22.9,58.4c0,-0.1 0,-0.3 0.2,-0.3c1.4,-0.4 2.6,-1.1 3.7,-2.1c0.1,-0.1 0.2,-0.1 0.3,0c0.1,0.1 0.1,0.2 0,0.3c-1.1,1 -2.4,1.8 -3.9,2.2c-0.2,0.1 -0.3,0.1 -0.3,-0.1z" fill="#75cdf9"></path><path d="M27.5,59.6c-0.1,-0.1 -0.1,-0.2 0,-0.3l0.8,-0.8c0.1,-0.1 0.2,-0.1 0.3,0c0.1,0.1 0.1,0.2 0,0.3l-0.8,0.8c0,0.1 -0.2,0.1 -0.3,0z" fill="#75cdf9"></path><path d="M42.1,58.6c1.4,-0.5 2.5,-1.4 3.5,-2.5c0.1,-0.1 0.2,-0.1 0.3,0c0.1,0.1 0.1,0.2 0,0.3c-1,1.2 -2.2,2.1 -3.6,2.7c-0.3,0.1 -0.5,-0.4 -0.2,-0.5z" fill="#75cdf9"></path><g fill="#75cdf9"><path d="M45.2,25.2c-1.4,-0.6 -3.1,-0.8 -4.6,-0.4c-0.3,0 -0.4,-0.4 -0.1,-0.5c1.6,-0.3 3.4,-0.2 4.9,0.5c0.1,0.1 0.2,0.2 0.1,0.3c-0.1,0.1 -0.2,0.2 -0.3,0.1z"></path></g><g fill="#75cdf9"><path d="M26.4,16.2c0,-0.1 0,-0.3 0.2,-0.3c2.7,-0.7 5.6,-0.9 8.4,-0.7c0.1,0 0.2,0.1 0.2,0.3c0,0.1 -0.1,0.2 -0.3,0.2c-2.8,-0.2 -5.5,0 -8.2,0.7c-0.1,0 -0.3,-0.1 -0.3,-0.2z"></path></g><g fill="#75cdf9"><path d="M22.9,24.4l1.7,-1.2c0.1,-0.1 0.3,-0.1 0.3,0.1c0.1,0.1 0.1,0.3 -0.1,0.3l-1.7,1.2c-0.1,0.1 -0.4,-0.3 -0.2,-0.4z"></path></g><g fill="#75cdf9"><path d="M30.7,25.9c-0.1,-0.1 -0.1,-0.2 0,-0.3l0.7,-0.8c0.2,-0.2 0.6,0.1 0.4,0.3l-0.7,0.8c-0.1,0.1 -0.3,0.1 -0.4,0z"></path></g><g fill="#75cdf9"><path d="M44.6,17.3l-5.3,-0.8c-0.1,0 -0.2,-0.1 -0.2,-0.3c0,-0.1 0.1,-0.2 0.3,-0.2l5.3,0.8c0.1,0 0.2,0.1 0.2,0.3c0,0.1 -0.1,0.2 -0.3,0.2z"></path></g><g fill="#75cdf9"><path d="M50.5,26.2l-3.2,-1.2c-0.1,0 -0.2,-0.2 -0.1,-0.3c0,-0.1 0.2,-0.2 0.3,-0.1l3.2,1.2c0.1,0 0.2,0.2 0.1,0.3c0,0.1 -0.2,0.1 -0.3,0.1z"></path></g><g fill="#75cdf9"><path d="M46.5,31.8c-0.5,-0.8 -1.1,-1.4 -1.8,-2c-0.1,-0.1 -0.1,-0.2 -0.1,-0.3c0.1,-0.1 0.2,-0.1 0.3,-0.1c0.8,0.6 1.5,1.3 2,2.1c0.1,0.1 0,0.3 -0.1,0.3c-0.1,0.1 -0.3,0.1 -0.3,0z"></path></g><g fill="#75cdf9"><path d="M48.2,46.5c-0.1,-0.1 -0.1,-0.2 0,-0.3c1.1,-1.2 1.7,-2.7 1.9,-4.3c0.1,-1.6 -0.3,-3.2 -1.2,-4.5c-0.1,-0.1 0,-0.3 0.1,-0.3c0.1,-0.1 0.3,0 0.3,0.1c1,1.4 1.4,3.1 1.3,4.8c-0.1,1.7 -0.8,3.3 -2,4.6c-0.2,0 -0.3,0 -0.4,-0.1z"></path></g><g fill="#ffffff"><path d="M61.5,18.7c-0.2,0 -0.4,-0.1 -0.5,0.1c0,-0.1 -0.1,-0.2 -0.3,-0.2c-0.5,0 -0.5,0.7 0,0.7c0.1,0 0.2,-0.1 0.3,-0.2c0.1,0.2 0.2,0.2 0.4,0.2c0.3,0.2 0.5,-0.5 0.1,-0.6z" opacity="0.68"></path><path d="M62.1,17.7l-0.1,0.1c-0.4,0.3 0.2,0.8 0.5,0.5l0.1,-0.1c0.4,-0.3 -0.2,-0.8 -0.5,-0.5z" opacity="0.68"></path><path d="M62.7,10.6c-0.2,0.2 0,0.8 0.5,0.5c0.1,0 0.2,-0.2 0.2,-0.4c0,-0.3 -0.5,-0.4 -0.7,-0.1z" opacity="0.68"></path><path d="M63,21.6c-0.5,0 -0.5,0.7 0,0.7c0.5,0 0.5,-0.7 0,-0.7z" opacity="0.68"></path><path d="M49.2,28c-0.2,0 -0.4,0.1 -0.4,0.3c-0.3,0.2 -0.3,0.6 -0.1,0.8c0.1,0.1 0.3,0.2 0.2,0.1c0,0.1 0.1,0.1 0.2,0.1c0.1,0.1 0.1,0.1 0.2,0.1h0.1c0.2,0.1 0.4,0.2 0.6,0.3c0.2,0.1 0.5,-0.1 0.5,-0.3c-0.1,-0.7 -0.6,-1.2 -1.3,-1.4z" opacity="0.68"></path><path d="M51.8,30.7c0,0.1 0,0.2 0,0.3c0,0.5 0.7,0.5 0.7,0c0,-0.1 0,-0.2 0,-0.3c0.1,-0.4 -0.7,-0.4 -0.7,0z" opacity="0.68"></path><path d="M49.5,31.7c0,0.1 0,0.1 0,0.2c0,0.5 0.7,0.5 0.7,0c0,-0.1 0,-0.1 0,-0.2c0,-0.5 -0.7,-0.5 -0.7,0z" opacity="0.68"></path><path d="M23.2,56.9c-0.1,-1.2 -1.1,-1.8 -2,-0.6c-0.1,0.1 -0.1,0.3 0,0.4c0.1,0.1 0.1,0.2 0.2,0.2c-0.1,0.1 -0.2,0.3 0,0.5c0.5,0.4 1.1,0.8 1.6,0.3h0.1c0.4,-0.1 0.5,-0.7 0.1,-0.8zM22.5,56.8c-0.2,-0.1 -0.3,-0.2 -0.5,-0.3c0.3,-0.2 0.4,0.1 0.5,0.3z" opacity="0.68"></path><path d="M25.5,57.1c-0.5,0 -0.5,0.7 0,0.7c0.4,0 0.4,-0.7 0,-0.7z" opacity="0.68"></path></g></g><g fill="#ffffff"><path d="M51,11.9c0.4,-0.7 -0.1,-1.1 -0.8,-1c-1,0.3 -1.6,2.5 -1.2,3.8c0.1,0.4 0.4,0.8 0.7,0.7c0.4,-0.1 0.5,-0.6 0.4,-1c-0.2,-0.8 -0.6,-1.2 0.2,-1.9c0.3,-0.1 0.6,-0.3 0.7,-0.6z"></path></g><g fill="#c5eaff" opacity="0.39"><path d="M44.9,12c-3.5,-1.7 -7.3,-2.3 -11.2,-2.2c-1.4,0 -2.7,0.2 -4,0.3c-1.2,0.1 -2.5,0.5 -3.7,0.1c-1.7,-0.5 -2.7,-3.2 0.7,-3.7c6.4,-0.9 12.8,1.8 18.2,5.5z"></path></g><g fill="#ffffff" opacity="0.83"><path d="M26,8.5c0,-0.3 0.1,-0.6 0.3,-0.7c0.2,-0.2 0.5,-0.3 0.7,-0.3c3.3,-0.9 7,-0.2 10.2,1.2c-2.5,-0.5 -5,-0.4 -7.4,0.1c-0.6,0.2 -3.5,1.1 -3.8,-0.3z"></path></g></g></g></g></g></svg>