<svg width="18" height="18" fill="none" xmlns="http://www.w3.org/2000/svg" id="staking">
  <path d="M12 17c-.7934-.5974-2.28754-1-4-1s-3.2066.4026-4 1M8 10v6M1.99963 5.04831c3.45005.34347 5.60859 2.50201 5.95206 5.95209.05471.5495-.40175 1.006-.95132.9513-3.45005-.3435-5.60859-2.50202-5.95206-5.95207-.05471-.54957.40175-1.00603.95132-.95132ZM16.0005 1.03707c-4.6982.35643-7.607 3.26522-7.96343 7.96346-.04177.55071.41169 1.00417.9624.96239 4.69823-.35643 7.60703-3.26521 7.96343-7.96345.0418-.55071-.4117-1.004174-.9624-.9624Z" stroke="currentColor" stroke-width="2" stroke-linecap="round"/>
</svg>
