<svg width="80" height="80" viewBox="0 0 80 80" fill="none" xmlns="http://www.w3.org/2000/svg">
<g clip-path="url(#clip0_12912_1526)">
<path d="M40 80C62.0914 80 80 62.0914 80 40C80 17.9086 62.0914 0 40 0C17.9086 0 0 17.9086 0 40C0 62.0914 17.9086 80 40 80Z" fill="#010101"/>
<path d="M60.554 64H64L55.1817 46.3958L56.2629 45.5074C60.1388 42.3305 62.3603 37.64 62.3603 32.64C62.3603 27.2737 59.8016 22.4926 55.8393 19.4484L53.9509 22.8737C54.4483 23.2926 54.9119 23.7495 55.3419 24.2421L56.4969 25.5621L53.8518 27.8653L52.6989 26.5453C52.1235 25.8863 51.4596 25.3116 50.7262 24.8379L49.3541 23.9516L52.8465 17.6126C50.6756 16.5789 48.2497 16 45.689 16H17V19.8526H24.3704V27.2105H39.1132V34.5684H45.6911C46.7554 34.5684 47.6217 33.7032 47.6217 32.6421C47.6217 31.5811 46.7554 30.7158 45.6911 30.7158H42.9743V23.3579H28.2294V19.8547H46.4835V27.2695C48.5174 27.5684 50.1909 28.9937 50.84 30.8905H58.5012V32.6421C58.5012 35.5305 57.5043 38.3642 55.696 40.6189C54.3745 42.2695 52.6568 43.5663 50.7325 44.3937L54.9351 52.7874H51.0107L45.6995 42.1853L47.8493 41.6737C49.8452 41.1979 51.6578 40.0463 52.9518 38.4316C53.9108 37.2358 54.5431 35.8632 54.8234 34.3937H50.8337C50.1023 36.5305 48.0706 38.0737 45.6848 38.0737H35.5956V30.7158H31.7365V41.9284H42.1208L51.2468 60.1495H47.3224L39.952 45.4337H24.3704V49.2863H31.7407V60.1474H28.2294V52.7895H20.8591V41.9284H28.2294V30.7158H20.8591V23.3579H17V34.5705H24.3704V38.0737H17V64H20.8591V56.6421H24.3704V64H35.6019V50.0611H38.8308L45.8133 64H56.6296L52.9434 56.6421H56.8678L60.554 64Z" fill="white"/>
</g>
<defs>
<clipPath id="clip0_12912_1526">
<rect width="80" height="80" fill="white"/>
</clipPath>
</defs>
</svg>
